<svg viewBox="0 0 48 48" xmlns="http://www.w3.org/2000/svg" role="img" aria-label="Google G logo">
  <path fill="#EA4335" d="M24 9.5c3.9 0 7.3 1.4 10 3.8l7.3-7.3C36.8 2.5 30.7 0 24 0 14.9 0 7.3 5.4 3.2 13.3l8.5 6.6C13.9 13.4 18.5 9.5 24 9.5z"/>
  <path fill="#34A853" d="M46.5 24c0-1.6-.1-3.1-.4-4.6H24v9h12.7c-.5 2.7-2 5-4.3 6.6l6.9 5.3C43.9 37.3 46.5 31.1 46.5 24z"/>
  <path fill="#4A90E2" d="M13.7 28.9c-.9-2.7-.9-5.4 0-8.1L5.2 14.2C2.1 18.9 0 23.9 0 29.2c0 5.3 2.1 10.3 5.2 15l8.5-6.6z"/>
  <path fill="#FBBC05" d="M24 48c6.7 0 12.8-2.5 17.5-6.7l-8.5-6.6c-2.4 1.6-5.5 2.6-9 2.6-5.5 0-10.1-3.9-11.8-9.4L5.2 33.8C7.6 39.9 15.1 48 24 48z"/>
</svg>